<?xml version="1.0" encoding="utf-8"?>
<!-- Generator: Adobe Illustrator 16.0.0, SVG Export Plug-In . SVG Version: 6.00 Build 0)  -->
<!DOCTYPE svg PUBLIC "-//W3C//DTD SVG 1.1//EN" "http://www.w3.org/Graphics/SVG/1.1/DTD/svg11.dtd">
<svg version="1.1" id="图层_1" xmlns="http://www.w3.org/2000/svg" xmlns:xlink="http://www.w3.org/1999/xlink" x="0px" y="0px"
	 width="141.732px" height="141.732px" viewBox="0 0 141.732 141.732" enable-background="new 0 0 141.732 141.732"
	 xml:space="preserve">
<g>
	
		<linearGradient id="SVGID_1_" gradientUnits="userSpaceOnUse" x1="441.3093" y1="471.3132" x2="441.3093" y2="442.988" gradientTransform="matrix(1 0 0 1 -370.9902 -368.5898)">
		<stop  offset="0" style="stop-color:#FFB9E7"/>
		<stop  offset="1" style="stop-color:#FF546B"/>
	</linearGradient>
	<path fill="url(#SVGID_1_)" d="M79.204,74.398c-0.71,2.313,0.632,3.685,1.869,5.242c2.562,3.224,3.369,7.156,3.829,11.125
		c0.297,2.594,0.37,5.221,0.414,7.834c0.042,2.419-1.629,4.112-3.865,4.121c-2.201,0.009-3.769-1.709-3.948-4.104
		c-0.256-3.403-0.625-6.8-0.963-10.195c-0.034-0.344-0.171-0.682-0.272-1.016c-1.312-4.309-4.594-6.005-8.771-4.274
		c-1.025,0.423-2.129,1.58-2.441,2.628c-0.831,2.769-1.333,5.647-1.795,8.51c-0.247,1.53-0.105,3.116-0.202,4.673
		c-0.138,2.22-1.804,3.799-3.917,3.782c-2.104-0.015-3.953-1.66-3.812-3.852c0.282-4.304,0.644-8.617,1.33-12.871
		c0.495-3.055,1.99-5.778,4.263-8.008c0.34-0.334,0.488-0.944,0.559-1.449c0.094-0.677,0.023-1.377,0.023-2.145
		C67.406,74.398,73.127,74.398,79.204,74.398z"/>
	
		<linearGradient id="SVGID_2_" gradientUnits="userSpaceOnUse" x1="441.3074" y1="421.7458" x2="441.3074" y2="406.4929" gradientTransform="matrix(1 0 0 1 -370.9902 -368.5898)">
		<stop  offset="0" style="stop-color:#FFB9E7"/>
		<stop  offset="1" style="stop-color:#FF546B"/>
	</linearGradient>
	<path fill="url(#SVGID_2_)" d="M70.388,53.156c-4.254,0.033-7.717-3.385-7.731-7.633c-0.015-4.174,3.351-7.558,7.577-7.619
		c4.234-0.062,7.749,3.395,7.743,7.615C77.972,49.688,74.559,53.123,70.388,53.156z"/>
	
		<linearGradient id="SVGID_3_" gradientUnits="userSpaceOnUse" x1="441.8425" y1="436.6208" x2="441.8425" y2="422.4812" gradientTransform="matrix(1 0 0 1 -370.9902 -368.5898)">
		<stop  offset="0" style="stop-color:#FFB9E7"/>
		<stop  offset="1" style="stop-color:#FF546B"/>
	</linearGradient>
	<path fill="url(#SVGID_3_)" d="M85.761,64.139c-1.11-2.689-4.136-6.014-4.976-7.51c-0.396-0.704-2.231-1.343-3.053-1.7
		c-2.422-1.054-10.016-1.621-14.41-0.139c-1.917,0.646-3.017,1.703-3.198,1.885c-0.86,0.863-3.487,3.924-4.258,6.733
		c-0.27,0.983-0.583,3.054,1.082,3.941c1.772,0.943,26.271,0.871,28.136,0C86.582,66.65,85.946,64.587,85.761,64.139z
		 M72.666,67.467c-1.039,0.118-3.655,0-3.655,0s-0.787-4.437-1.054-6.47c1.833,0,3.959,0,5.831,0
		C73.502,63.134,72.942,65.4,72.666,67.467z M67.876,60.685c0-0.201,0.16-0.559,0.319-0.712c0.057-0.054,0.242-0.052,0.242-0.052
		s2.066-0.036,3.906-0.021v-1.98l-2.999-3.017l0.243-0.241l3.091,3.106h0.008v2.134c0.9,0.01,0.95-0.08,1.144,0.782
		C71.765,60.685,69.82,60.685,67.876,60.685z"/>
</g>
<linearGradient id="SVGID_4_" gradientUnits="userSpaceOnUse" x1="441.2537" y1="471.3113" x2="441.2537" y2="435.6648" gradientTransform="matrix(1 0 0 1 -370.9902 -368.5898)">
	<stop  offset="0" style="stop-color:#FFB9E7"/>
	<stop  offset="1" style="stop-color:#FF546B"/>
</linearGradient>
<path fill="url(#SVGID_4_)" d="M103.269,68.227c-0.24-1.273-1.715-1.13-2.694-1.152c-8.548,0.021-52.264-0.012-61.262,0.011
	c-0.808-0.049-1.881,0.156-2.053,1.102c-0.195,1.836-0.195,3.7,0,5.536c0.104,1.019,1.279,1.186,2.098,1.151
	c9.469,0.007,18.934-0.005,28.402,0c0.005,7.011-0.006,14.021,0.005,21.031c-1.44,1.541-3.177,2.838-4.367,4.596
	c-0.216,0.779,0.249,2.22,0.249,2.22h13.468c0,0,0.579-1.463-0.039-2.209c-1.057-1.356-2.564-3.369-3.768-4.592
	c0.011-7.206,0.011-13.84,0.017-21.046c9.091,0.007,18.188-0.01,27.279,0.013c0.968-0.018,2.381,0.104,2.665-1.114
	C103.458,71.932,103.464,70.063,103.269,68.227z"/>
<linearGradient id="SVGID_5_" gradientUnits="userSpaceOnUse" x1="497.9763" y1="472.3123" x2="497.9763" y2="433.9011" gradientTransform="matrix(1 0 0 1 -370.9902 -368.5898)">
	<stop  offset="0" style="stop-color:#FFB9E7"/>
	<stop  offset="1" style="stop-color:#FF546B"/>
</linearGradient>
<path fill="url(#SVGID_5_)" d="M134.278,67.563c0.779-3.01,5.574-2.993,6.387-0.005c0.373,3.105,0.084,6.248,0.195,9.363
	c-0.083,3.366,0.507,7.026-1.297,10.071c-0.913,1.74-2.625,2.837-4.412,3.521c1.524,3.694,2.977,7.412,4.518,11.095
	c-1.386,0.596-2.771,1.181-4.166,1.752c-1.731-4.212-3.417-8.436-5.146-12.646c-2.388,0.018-4.775,0.039-7.168,0.078
	c-1.603,4.312-3.159,8.641-4.817,12.93c-1.402-0.534-2.805-1.066-4.207-1.603c1.402-3.705,2.737-7.438,4.151-11.146
	c-1.44-0.133-3.2,0.151-4.274-1.062c-1.891-1.726-0.821-5.414,1.781-5.682c4.824-0.339,9.676,0.039,14.499-0.272
	c1.771-0.044,3.39-1.413,3.601-3.188C134.405,76.386,133.765,71.936,134.278,67.563L134.278,67.563z"/>
<linearGradient id="SVGID_6_" gradientUnits="userSpaceOnUse" x1="487.7839" y1="471.9119" x2="487.7839" y2="422.9226" gradientTransform="matrix(1 0 0 1 -370.9902 -368.5898)">
	<stop  offset="0" style="stop-color:#FFB9E7"/>
	<stop  offset="1" style="stop-color:#FF546B"/>
</linearGradient>
<path fill="url(#SVGID_6_)" d="M132.236,74.997c-0.528-6.047-2.463-11.613-5.758-16.704c-1.161-1.795-2.719-3.104-4.821-3.677
	c-3.354-0.918-5.695,0.418-6.741,3.721c-0.358,1.14-0.879,2.264-1.518,3.271c-0.992,1.566-2.039,1.855-3.576,0.871
	c-1.3-0.833-2.419-1.952-3.602-2.966c-0.195-0.168-1.735-1.475-2.552-1.566c-1.405-0.161-2.313,1.022-2.354,1.569
	c-0.003,0.028-0.008,0.057-0.016,0.082c2.255-1.044,3.132-0.769,5.015,1.162c0.979,1.005,2.036,1.981,3.202,2.748
	c1.987,1.306,3.711,1.121,5.288-0.643c1.022-1.148,1.83-2.521,2.581-3.877c1.004-1.813,2.692-2.583,4.375-1.813
	c1.705,0.781,2.483,2.646,1.47,4.438c-1.229,2.169-2.739,4.193-4.266,6.174c-0.493,0.642-0.704,1.031-0.392,1.822
	c0.691,1.749,1.239,3.557,1.918,5.554c-3.947,0-7.572,0-11.195,0c-5.54-0.003-6.66,1.15-6.096,6.597
	c0.625,6.021,1.33,12.033,2.076,18.039c0.299,2.402,2.281,3.8,4.646,3.476c2.175-0.296,3.651-2.288,3.395-4.6
	c-0.213-1.904-0.453-3.808-0.664-5.712c-0.351-3.146-0.686-6.292-1.047-9.619c0.708,0,1.253,0,1.797,0
	c3.784-0.013,7.579,0.129,11.354-0.073C130.221,82.977,132.686,80.13,132.236,74.997z"/>
<linearGradient id="SVGID_7_" gradientUnits="userSpaceOnUse" x1="482.9343" y1="423.6707" x2="482.9343" y2="409.0408" gradientTransform="matrix(1 0 0 1 -370.9902 -368.5898)">
	<stop  offset="0" style="stop-color:#FFB9E7"/>
	<stop  offset="1" style="stop-color:#FF546B"/>
</linearGradient>
<path fill="url(#SVGID_7_)" d="M104.633,47.77c-0.009-4.089,3.173-7.298,7.253-7.319c4.126-0.022,7.396,3.25,7.369,7.374
	c-0.026,4.035-3.296,7.263-7.35,7.256C107.852,55.074,104.639,51.844,104.633,47.77z"/>
<linearGradient id="SVGID_8_" gradientUnits="userSpaceOnUse" x1="471.8738" y1="435.2039" x2="471.8738" y2="423.446" gradientTransform="matrix(1 0 0 1 -370.9902 -368.5898)">
	<stop  offset="0" style="stop-color:#FFB9E7"/>
	<stop  offset="1" style="stop-color:#FF546B"/>
</linearGradient>
<path fill="url(#SVGID_8_)" d="M105.99,55.06c0.062-0.059,0.133-0.107,0.208-0.147c0.171-0.092,0.322-0.071,0.446,0.054
	c0.133,0.129,0.156,0.268,0.063,0.445c-0.043,0.081-0.095,0.162-0.158,0.226c-0.643,0.638-0.53,0.517-1.179,1.151
	c-0.238,0.232-0.482,0.461-0.721,0.694c-0.44,0.43-0.88,0.859-1.319,1.29c-0.335,0.326-0.669,0.651-1.004,0.976
	c-0.349,0.338-0.698,0.678-1.044,1.016c-0.338,0.328-0.675,0.654-1.011,0.981c-0.348,0.336-0.694,0.674-1.04,1.01
	c-0.341,0.332-0.684,0.664-1.023,0.996c-0.346,0.336-0.69,0.674-1.038,1.01c-0.338,0.329-0.678,0.659-1.018,0.989
	c-0.271,0.262-0.542,0.523-0.813,0.786c-0.098,0.094-0.199,0.103-0.278,0.021c-0.081-0.08-0.072-0.182,0.022-0.281
	c0.43-0.438,0.859-0.88,1.289-1.318c0.431-0.44,0.858-0.882,1.287-1.323c0.27-0.275,0.535-0.549,0.802-0.825
	c0.399-0.41,0.8-0.819,1.197-1.229c0.272-0.28,0.543-0.561,0.816-0.839c0.392-0.403,0.782-0.807,1.175-1.209
	c0.272-0.282,0.549-0.564,0.823-0.848c0.39-0.399,0.779-0.801,1.169-1.201c0.284-0.292,0.566-0.584,0.851-0.875
	c0.378-0.389,0.754-0.778,1.135-1.167c0.133-0.133-0.013,0.013-0.1,0.099c0,0,0,0,0.001,0c-0.087,0.087-0.056,0.056-0.001,0
	c-0.004-0.003-0.007-0.007-0.01-0.01C105.676,55.373,105.828,55.213,105.99,55.06z"/>
<linearGradient id="SVGID_9_" gradientUnits="userSpaceOnUse" x1="470.9812" y1="434.4802" x2="470.9812" y2="423.2117" gradientTransform="matrix(1 0 0 1 -370.9902 -368.5898)">
	<stop  offset="0" style="stop-color:#FFB9E7"/>
	<stop  offset="1" style="stop-color:#FF546B"/>
</linearGradient>
<path fill="url(#SVGID_9_)" d="M105.214,54.64c0.124-0.03,0.246-0.035,0.344,0.077c0.095,0.112,0.127,0.238,0.072,0.374
	c-0.04,0.097-0.094,0.196-0.162,0.272c-0.152,0.169-0.319,0.324-0.48,0.485c-0.005-0.005-0.01-0.01-0.015-0.016
	c-0.479,0.478-0.952,0.955-1.432,1.429c-0.315,0.313-0.64,0.621-0.958,0.931c-0.646,0.63-1.293,1.257-1.94,1.885
	c-0.318,0.311-0.641,0.621-0.958,0.93c-0.324,0.316-0.649,0.631-0.975,0.945c-0.32,0.313-0.646,0.626-0.968,0.938
	c-0.321,0.313-0.645,0.625-0.967,0.938c-0.322,0.313-0.646,0.625-0.966,0.938c-0.322,0.313-0.646,0.625-0.967,0.938
	c-0.322,0.313,0.693-0.712,0.37-0.401c-0.182,0.178-0.367,0.354-0.554,0.526c-0.083,0.079-0.189,0.08-0.269,0.004
	c-0.084-0.08-0.085-0.19-0.001-0.276c0.241-0.254,0.486-0.508,0.729-0.76c0.504-0.516-0.331,0.308,0.172-0.209
	c0.241-0.247,0.479-0.494,0.722-0.744c0.373-0.384,0.748-0.769,1.119-1.153c0.252-0.257,0.5-0.515,0.749-0.771
	c0.36-0.373,0.724-0.746,1.087-1.118c0.264-0.271,0.525-0.544,0.789-0.815c0.354-0.362,0.706-0.726,1.058-1.09
	c0.263-0.269,0.522-0.539,0.784-0.808c0.353-0.363,0.705-0.727,1.059-1.089c0.325-0.336,0.65-0.675,0.979-1.01
	c0.341-0.352,0.682-0.703,1.029-1.047C104.818,54.796,105.005,54.69,105.214,54.64z"/>
<linearGradient id="SVGID_10_" gradientUnits="userSpaceOnUse" x1="482.823" y1="438.7976" x2="482.823" y2="426.072" gradientTransform="matrix(1 0 0 1 -370.9902 -368.5898)">
	<stop  offset="0" style="stop-color:#FFB9E7"/>
	<stop  offset="1" style="stop-color:#FF546B"/>
</linearGradient>
<path fill="url(#SVGID_10_)" d="M111.185,70.208c-0.713-0.202-2.065-0.449-3.303-0.969c-2.715-1.143-4.797-3.142-6.632-5.388
	c-0.947-1.162-0.727-2.762,0.368-3.654c1.063-0.871,2.508-0.773,3.571,0.225c1.209,1.136,2.329,2.4,3.665,3.363
	c2.497,1.8,4.693,1.522,6.679-0.806c0.938-1.1,1.663-2.396,2.372-3.665c0.883-1.58,2.173-2.214,3.572-1.602
	c1.455,0.638,1.937,2.145,1.183,3.83c-1.191,2.667-2.826,5.003-5.196,6.767C115.791,69.552,113.907,70.178,111.185,70.208z"/>
<linearGradient id="SVGID_11_" gradientUnits="userSpaceOnUse" x1="385.7361" y1="472.4187" x2="385.7361" y2="434.0056" gradientTransform="matrix(1 0 0 1 -370.9902 -368.5898)">
	<stop  offset="0" style="stop-color:#FFB9E7"/>
	<stop  offset="1" style="stop-color:#FF546B"/>
</linearGradient>
<path fill="url(#SVGID_11_)" d="M7.453,67.668c-0.779-3.01-5.575-2.993-6.387-0.005c-0.373,3.104-0.083,6.248-0.194,9.361
	c0.083,3.366-0.507,7.028,1.295,10.072c0.913,1.741,2.626,2.838,4.413,3.521c-1.523,3.693-2.976,7.412-4.517,11.095
	c1.385,0.596,2.77,1.18,4.167,1.752c1.729-4.212,3.416-8.435,5.146-12.646c2.388,0.019,4.774,0.039,7.167,0.078
	c1.603,4.313,3.16,8.642,4.818,12.933c1.402-0.535,2.804-1.068,4.206-1.604c-1.402-3.706-2.738-7.438-4.15-11.145
	c1.44-0.134,3.199,0.148,4.272-1.063c1.892-1.726,0.824-5.413-1.78-5.681c-4.824-0.339-9.676,0.039-14.5-0.271
	c-1.77-0.046-3.388-1.414-3.599-3.188C7.325,76.491,7.965,72.04,7.453,67.668L7.453,67.668z"/>
<linearGradient id="SVGID_12_" gradientUnits="userSpaceOnUse" x1="395.9265" y1="472.0154" x2="395.9265" y2="423.0242" gradientTransform="matrix(1 0 0 1 -370.9902 -368.5898)">
	<stop  offset="0" style="stop-color:#FFB9E7"/>
	<stop  offset="1" style="stop-color:#FF546B"/>
</linearGradient>
<path fill="url(#SVGID_12_)" d="M9.493,75.1c0.53-6.046,2.464-11.614,5.759-16.706c1.162-1.795,2.721-3.102,4.82-3.677
	c3.356-0.919,5.696,0.418,6.742,3.721c0.359,1.14,0.879,2.265,1.52,3.272c0.992,1.566,2.038,1.854,3.575,0.872
	c1.3-0.833,2.42-1.952,3.602-2.965c0.195-0.169,1.734-1.476,2.552-1.568c1.407-0.162,2.312,1.023,2.355,1.57
	c0.001,0.027,0.008,0.055,0.015,0.082c-2.255-1.044-3.132-0.77-5.015,1.162c-0.979,1.005-2.034,1.98-3.201,2.747
	c-1.988,1.306-3.712,1.12-5.287-0.644c-1.025-1.148-1.831-2.52-2.582-3.876c-1.003-1.813-2.692-2.582-4.374-1.813
	c-1.706,0.781-2.485,2.646-1.471,4.438c1.23,2.169,2.739,4.193,4.266,6.175c0.494,0.642,0.704,1.03,0.392,1.822
	c-0.69,1.749-1.239,3.556-1.918,5.552c3.947,0,7.572,0,11.196,0c5.539-0.001,6.659,1.153,6.094,6.599
	c-0.624,6.021-1.33,12.032-2.077,18.04c-0.298,2.4-2.28,3.798-4.646,3.476c-2.174-0.297-3.651-2.29-3.394-4.601
	c0.212-1.905,0.451-3.807,0.663-5.712c0.351-3.145,0.687-6.292,1.048-9.619c-0.711,0-1.254,0.001-1.798-0.001
	c-3.785-0.013-7.578,0.13-11.353-0.073C11.511,83.081,9.044,80.234,9.493,75.1z"/>
<linearGradient id="SVGID_13_" gradientUnits="userSpaceOnUse" x1="400.7781" y1="423.7732" x2="400.7781" y2="409.1443" gradientTransform="matrix(1 0 0 1 -370.9902 -368.5898)">
	<stop  offset="0" style="stop-color:#FFB9E7"/>
	<stop  offset="1" style="stop-color:#FF546B"/>
</linearGradient>
<path fill="url(#SVGID_13_)" d="M37.099,47.875c0.006-4.088-3.174-7.297-7.254-7.32c-4.126-0.021-7.396,3.25-7.369,7.374
	c0.026,4.036,3.296,7.263,7.349,7.255C33.878,55.177,37.094,51.947,37.099,47.875z"/>
<linearGradient id="SVGID_14_" gradientUnits="userSpaceOnUse" x1="413.0798" y1="434.0437" x2="413.0798" y2="426.8064" gradientTransform="matrix(1 0 0 1 -370.9902 -368.5898)">
	<stop  offset="0" style="stop-color:#FFB9E7"/>
	<stop  offset="1" style="stop-color:#FF546B"/>
</linearGradient>
<path fill="url(#SVGID_14_)" d="M41.466,61.719c-0.11-0.1-0.221-0.203-0.33-0.303c-0.376-0.35-0.751-0.7-1.127-1.048
	c-0.298-0.274-0.597-0.546-0.896-0.821c-0.177-0.162-0.358-0.32-0.532-0.486c-0.169-0.16-0.169-0.328-0.007-0.498
	c0.036-0.038,0.074-0.074,0.111-0.111c-0.001,0-0.001-0.001-0.002-0.002c0.059-0.055,0.113-0.11,0.176-0.159
	c0.134-0.105,0.299-0.099,0.42,0.024c0.125,0.124,0.243,0.254,0.361,0.386c0.109,0.122,0.214,0.248,0.325,0.368
	c0.24,0.263,0.484,0.52,0.725,0.781c0.305,0.332,0.606,0.668,0.911,1.003c0.102,0.113,0.205,0.226,0.309,0.337
	c0.229,0.246,0.458,0.494,0.688,0.741c0.071,0.077,0.139,0.159,0.214,0.234c0.019,0.018,0.064,0.034,0.087,0.023
	c0.431-0.187,0.855-0.129,1.264,0.058c0.76,0.348,1.283,0.915,1.506,1.729c0.095,0.338,0.084,0.679-0.097,0.991
	c-0.174,0.299-0.449,0.447-0.787,0.479c-0.438,0.042-0.835-0.095-1.201-0.326c-0.579-0.368-0.995-0.867-1.179-1.539
	c-0.082-0.302-0.084-0.604,0.032-0.9c0.012-0.028-0.002-0.084-0.026-0.104C42.098,62.288,41.781,62.004,41.466,61.719z"/>
<linearGradient id="SVGID_15_" gradientUnits="userSpaceOnUse" x1="400.8884" y1="438.9021" x2="400.8884" y2="426.1755" gradientTransform="matrix(1 0 0 1 -370.9902 -368.5898)">
	<stop  offset="0" style="stop-color:#FFB9E7"/>
	<stop  offset="1" style="stop-color:#FF546B"/>
</linearGradient>
<path fill="url(#SVGID_15_)" d="M30.548,70.312c0.713-0.204,2.064-0.449,3.301-0.97c2.716-1.142,4.798-3.141,6.633-5.387
	c0.948-1.161,0.726-2.762-0.368-3.655c-1.063-0.87-2.509-0.772-3.571,0.225c-1.209,1.138-2.33,2.401-3.666,3.364
	c-2.497,1.799-4.693,1.522-6.679-0.806c-0.937-1.101-1.664-2.396-2.372-3.666c-0.883-1.58-2.172-2.215-3.571-1.602
	c-1.455,0.639-1.938,2.146-1.184,3.83c1.193,2.666,2.827,5.004,5.198,6.768C25.939,69.656,27.823,70.283,30.548,70.312z"/>
<linearGradient id="SVGID_16_" gradientUnits="userSpaceOnUse" x1="418.8875" y1="435.741" x2="418.8875" y2="433.4119" gradientTransform="matrix(1 0 0 1 -370.9902 -368.5898)">
	<stop  offset="0" style="stop-color:#FFB9E7"/>
	<stop  offset="1" style="stop-color:#FF546B"/>
</linearGradient>
<ellipse fill="url(#SVGID_16_)" cx="47.897" cy="65.987" rx="7.756" ry="1.165"/>
<linearGradient id="SVGID_17_" gradientUnits="userSpaceOnUse" x1="465.3191" y1="435.6472" x2="465.3191" y2="433.3171" gradientTransform="matrix(1 0 0 1 -370.9902 -368.5898)">
	<stop  offset="0" style="stop-color:#FFB9E7"/>
	<stop  offset="1" style="stop-color:#FF546B"/>
</linearGradient>
<ellipse fill="url(#SVGID_17_)" cx="94.329" cy="65.892" rx="7.755" ry="1.165"/>
</svg>
